<svg xmlns="http://www.w3.org/2000/svg" version="1.1" xmlns:xlink="http://www.w3.org/1999/xlink" xmlns:svgjs="http://svgjs.dev/svgjs" width="2000" height="2000" viewBox="0 0 2000 2000"><g transform="matrix(1,0,0,1,0,0)"><svg viewBox="0 0 280 280" data-background-color="#8abcd7" preserveAspectRatio="xMidYMid meet" height="2000" width="2000" xmlns="http://www.w3.org/2000/svg" xmlns:xlink="http://www.w3.org/1999/xlink"><g id="tight-bounds" transform="matrix(1,0,0,1,0,0)"><svg viewBox="0 0 280 280" height="280" width="280"><g><svg viewBox="0 0 280 280" height="280" width="280"><g><svg viewBox="0 0 280 280" height="280" width="280"><g id="textblocktransform"><svg viewBox="0 0 280 280" height="280" width="280" id="textblock"><g><svg viewBox="0 0 280 280" height="280" width="280"><g transform="matrix(1,0,0,1,75.61143116735433,74.00336708925556)"><svg viewBox="0 0 128.77713766529135 131.99326582148888" height="131.99326582148888" width="128.77713766529135"><g id="icon-0"><svg xmlns="http://www.w3.org/2000/svg" xmlns:xlink="http://www.w3.org/1999/xlink" version="1.1" x="0" y="0" viewBox="10.71 11.25 78.03999999999999 79.989" enable-background="new 0 0 100 100" xml:space="preserve" height="131.99326582148888" width="128.77713766529135" class="icon-jxe-0" data-fill-palette-color="accent" id="jxe-0"><path d="M88.75 50C88.75 28.63 71.37 11.25 50 11.25S11.25 28.63 11.25 50C11.25 59.68 14.78 68.82 21.22 75.95L10.71 86.46 13.54 89.29 26.3 76.53H38.93L35.88 79.58H28.3V81.58H33.88L30.71 84.75H23.17V86.75H28.71L26.02 89.44 27.44 90.849 31.54 86.749H67.25L71.56 91.239 73 89.86 70.02 86.75H75.071V84.75H68.1L65.06 81.58H70.84V79.58H63.14L60.21 76.53H72.18L84.3 89.25 87.2 86.5 77.98 76.81C84.94 69.57 88.75 60.12 88.75 50M65.33 84.75H33.54L36.71 81.58H62.29zM60.37 79.58H38.71L41.76 76.53H57.44zM58.5 47.08L55 44.05V32.38H64.12L65.88 34.55 66.88 47.08zM64 56.62C64 57.38 62.74 58 61.19 58 59.629 58 58.379 57.38 58.379 56.62 58.379 55.87 59.629 55.25 61.19 55.25 62.74 55.25 64 55.87 64 56.62M55.25 28.88H45.29V26.38S46.54 24.75 50.27 24.75 55.25 26.38 55.25 26.38zM53.83 33V43.5H46.58V33zM54.81 70.25V73.53H44.61V70.25zM45.29 44.05L41.79 47.08H33.42L34.42 34.55 36.17 32.38H45.29zM38.69 55.25C40.24 55.25 41.5 55.87 41.5 56.62 41.5 57.38 40.24 58 38.69 58 37.13 58 35.88 57.38 35.88 56.62 35.88 55.87 37.13 55.25 38.69 55.25M72.77 73.53H58.27V70.25H62.121V66.25H65.231V64.17H69.67V51.25L68.33 34.33S63.559 23.62 50.27 23.34C50.18 23.33 50.09 23.33 50 23.34 49.91 23.33 49.82 23.33 49.73 23.34 36.44 23.62 31.92 34.33 31.92 34.33L30.33 51.25V64.17H34.77V66.25H37.88V70.25H41.15V73.53H27.2L26.84 73.17V73.16C20.66 66.97 17.25 58.75 17.25 50 17.25 40.89 20.98 32.65 27 26.7 27.79 25.93 28.61 25.19 29.47 24.5 35.09 19.97 42.23 17.25 50 17.25S64.91 19.97 70.53 24.5C71.509 25.29 72.44 26.14 73.33 27.03 79.15 32.95 82.75 41.06 82.75 50 82.75 58.46 79.6 66.36 73.83 72.46 73.49 72.83 73.13 73.19 72.77 73.53" fill="#ffffff" data-fill-palette-color="accent"></path></svg></g></svg></g><g id="text-0"><path d="M16.559 93.321l-9.084-11.756 1.458-3.975 11.125 15.036 12.038 4.416-1.273 3.469-12.037-4.416-18.21 4.274 1.458-3.975z" fill="#ffffff" data-fill-palette-color="primary"></path><path d="M36.26 61.41l-3.997-19.302 3.139-0.722 3.417 16.574 18.285-0.715-2.768 3.518-18.012 0.698 10.787 8.486-2.297 2.92-22.357-17.588 2.297-2.92z" fill="#ffffff" data-fill-palette-color="primary"></path><path d="M81.825 10.371l-1.076-2.85 19.927-7.521 1.075 2.849-8.177 3.087 8.969 23.763-3.476 1.313-8.97-23.764z" fill="#ffffff" data-fill-palette-color="primary"></path><path d="M130.273 7.731l0.182-0.015c0.34-0.849 0.717-1.619 1.13-2.31 0.413-0.698 0.885-1.299 1.415-1.803v0c0.477-0.486 1.018-0.862 1.621-1.127 0.597-0.265 1.29-0.428 2.08-0.491v0c0.263-0.021 0.571-0.032 0.924-0.033 0.353-0.001 0.687 0.017 1.002 0.053v0c0.005 0.665-0.006 1.287-0.035 1.866-0.028 0.586-0.076 1.181-0.143 1.784v0c-0.671-0.069-1.281-0.105-1.832-0.109-0.551-0.011-1.066 0.041-1.546 0.153v0c-0.565 0.154-1.052 0.389-1.461 0.707-0.403 0.317-0.767 0.723-1.095 1.218-0.321 0.494-0.627 1.082-0.919 1.763-0.293 0.675-0.608 1.45-0.945 2.326v0l0.935 11.769-3.39 0.27-1.005-12.64c-0.066-0.83-0.134-1.558-0.204-2.183-0.071-0.633-0.159-1.233-0.265-1.802-0.099-0.562-0.232-1.119-0.398-1.669-0.166-0.55-0.374-1.158-0.623-1.824v0c0.541-0.192 1.074-0.367 1.598-0.525 0.523-0.164 1.058-0.318 1.602-0.463v0c0.224 0.512 0.409 0.965 0.557 1.361 0.14 0.396 0.259 0.787 0.358 1.173 0.098 0.379 0.177 0.77 0.235 1.173 0.065 0.395 0.139 0.855 0.222 1.378z" fill="#ffffff" data-fill-palette-color="primary"></path><path d="M161.507 7.924v0l-0.346-2.885c2.344-0.455 4.707-0.458 7.088-0.011v0c2.089 0.393 3.619 1.042 4.592 1.948v0c1.106 1.041 1.478 2.526 1.115 4.455v0l-1.494 7.952c-0.2 1.064-0.391 2.154-0.574 3.27v0c-0.112 0.668-0.178 1.368-0.198 2.101v0c-0.02 0.692-0.004 1.359 0.047 2.002v0l-3.324 0.099c-0.129-0.926-0.133-1.932-0.011-3.019v0l-0.382-0.113c-1.99 1.72-4.228 2.346-6.716 1.878v0c-1.816-0.341-3.178-1.117-4.087-2.328-0.915-1.212-1.201-2.732-0.857-4.561v0c0.256-1.364 0.768-2.421 1.536-3.172 0.762-0.759 1.751-1.33 2.967-1.715v0c1.915-0.625 4.435-0.644 7.561-0.056v0c0.412 0.078 0.965 0.195 1.659 0.353v0l0.555-2.953c0.175-0.931 0.019-1.656-0.469-2.175-0.493-0.527-1.349-0.904-2.566-1.133v0c-1.776-0.334-3.808-0.313-6.096 0.063zM168.855 20.657v0l0.766-4.08c-0.341-0.092-0.851-0.201-1.528-0.329v0c-1.137-0.214-2.203-0.314-3.198-0.301v0c-1.484 0.017-2.676 0.261-3.577 0.732-0.893 0.466-1.449 1.277-1.666 2.435v0c-0.389 2.069 0.544 3.315 2.799 3.738v0c1.164 0.219 2.31 0.114 3.437-0.314v0c0.929-0.363 1.918-0.989 2.967-1.881z" fill="#ffffff" data-fill-palette-color="primary"></path><path d="M197.502 15.344v0l3.252 0.843c-0.129 0.816-0.318 1.579-0.566 2.288v0c-0.112 0.338-0.373 0.995-0.782 1.972v0l0.371 0.19c1.252-0.857 2.534-1.394 3.847-1.612v0c1.437-0.238 2.737-0.059 3.9 0.536v0c1.747 0.894 2.863 1.997 3.347 3.309v0c0.422 1.121 0.406 2.496-0.048 4.127v0c-0.319 1.114-0.989 2.668-2.01 4.662v0l-4.94 9.651-3.027-1.549 5.37-10.492c0.897-1.753 1.368-3.09 1.413-4.009v0c0.064-1.374-0.666-2.45-2.19-3.231v0c-1.084-0.555-2.405-0.581-3.963-0.078v0c-1.047 0.338-2.308 0.974-3.782 1.908v0l-5.795 11.323-3.027-1.549 5.767-11.27c0.811-1.584 1.472-2.972 1.983-4.162v0c0.319-0.742 0.612-1.694 0.88-2.857z" fill="#ffffff" data-fill-palette-color="primary"></path><path d="M237.223 41.765v0c0.782 0.749 1.49 1.58 2.122 2.495 0.633 0.915 1.151 1.837 1.555 2.766v0c-0.427 0.182-0.851 0.351-1.274 0.509-0.432 0.158-0.869 0.297-1.312 0.417v0c-0.146-0.318-0.319-0.666-0.519-1.044-0.2-0.369-0.428-0.742-0.685-1.119-0.252-0.373-0.528-0.74-0.828-1.102-0.295-0.367-0.604-0.705-0.927-1.014v0c-0.357-0.342-0.732-0.635-1.125-0.88-0.398-0.24-0.801-0.401-1.21-0.483-0.404-0.077-0.808-0.056-1.212 0.063-0.404 0.109-0.794 0.36-1.168 0.751v0c-0.384 0.401-0.621 0.82-0.712 1.257-0.081 0.437-0.062 0.887 0.058 1.349 0.12 0.462 0.318 0.946 0.592 1.452 0.279 0.501 0.594 1.018 0.946 1.551v0c0.531 0.836 0.994 1.649 1.389 2.44 0.391 0.786 0.642 1.561 0.755 2.324 0.113 0.763 0.048 1.516-0.194 2.259-0.233 0.742-0.704 1.485-1.416 2.228v0c-0.749 0.782-1.546 1.307-2.392 1.575-0.851 0.263-1.716 0.325-2.595 0.186-0.879-0.139-1.755-0.457-2.628-0.954-0.873-0.498-1.71-1.13-2.511-1.898v0c-0.421-0.402-0.825-0.841-1.214-1.316-0.394-0.48-0.761-0.977-1.103-1.491-0.332-0.514-0.64-1.044-0.925-1.588-0.285-0.544-0.531-1.08-0.739-1.606v0c0.427-0.172 0.854-0.335 1.282-0.488 0.423-0.148 0.853-0.289 1.29-0.423v0c0.187 0.431 0.397 0.877 0.632 1.336 0.245 0.459 0.511 0.91 0.798 1.354 0.292 0.439 0.593 0.858 0.904 1.258 0.31 0.4 0.632 0.759 0.964 1.077v0c0.421 0.402 0.873 0.742 1.358 1.019 0.485 0.286 0.982 0.476 1.492 0.57 0.505 0.089 1.004 0.062 1.499-0.083 0.499-0.15 0.967-0.452 1.402-0.907v0c0.412-0.43 0.661-0.867 0.746-1.309 0.091-0.447 0.076-0.906-0.044-1.378-0.116-0.467-0.315-0.948-0.599-1.444-0.284-0.496-0.592-1.007-0.924-1.531v0c-0.515-0.802-0.971-1.594-1.367-2.375-0.39-0.776-0.647-1.546-0.769-2.309-0.117-0.759-0.069-1.514 0.144-2.265 0.218-0.756 0.682-1.506 1.394-2.25v0c0.664-0.694 1.382-1.155 2.152-1.383 0.766-0.232 1.547-0.281 2.345-0.145 0.788 0.136 1.575 0.43 2.36 0.882 0.781 0.447 1.518 1.003 2.213 1.667z" fill="#ffffff" data-fill-palette-color="primary"></path><path d="M264.125 63.037v0c0.333 0.51 0.443 1.069 0.33 1.675v0c-0.148 0.614-0.481 1.09-0.996 1.427v0c-0.533 0.348-1.099 0.459-1.698 0.333v0c-0.624-0.126-1.102-0.444-1.436-0.954v0c-0.344-0.527-0.45-1.104-0.318-1.732v0c0.107-0.603 0.433-1.083 0.976-1.438v0c0.527-0.344 1.1-0.451 1.718-0.322v0c0.605 0.147 1.079 0.483 1.424 1.011zM239.273 77.192l17.221-11.246 1.86 2.848-17.221 11.245z" fill="#ffffff" data-fill-palette-color="primary"></path><path d="M269.762 93.138l4.444-1.562 1.128 3.209-4.444 1.561 2.295 6.532-2.701 0.949-2.295-6.532-11.139 3.915c-0.747 0.263-1.311 0.486-1.691 0.669-0.376 0.175-0.644 0.391-0.805 0.649v0c-0.335 0.476-0.329 1.206 0.016 2.19v0c0.193 0.549 0.433 1.06 0.722 1.532v0c0.299 0.483 0.592 0.918 0.878 1.306v0c-0.639 0.612-1.361 1.221-2.166 1.826v0c-1.014-1.294-1.783-2.684-2.306-4.172v0c-0.381-1.085-0.565-1.996-0.551-2.733 0.012-0.743 0.227-1.396 0.645-1.959v0c0.44-0.585 1.033-1.081 1.781-1.487 0.755-0.402 1.836-0.85 3.24-1.343v0l10.248-3.601-0.986-2.806 2.701-0.949z" fill="#ffffff" data-fill-palette-color="primary"></path><path d="M1.526 140.935c0-6.093 4.94-11.033 11.033-11.033 6.093 0 11.033 4.94 11.033 11.033 0 6.093-4.94 11.033-11.033 11.033-6.093 0-11.033-4.94-11.033-11.033z" fill="#ffffff" data-fill-palette-color="primary"></path><path d="M257.358 140.935c0-6.093 4.94-11.033 11.033-11.033 6.093 0 11.033 4.94 11.033 11.033 0 6.093-4.94 11.033-11.033 11.033-6.093 0-11.033-4.94-11.033-11.033z" fill="#ffffff" data-fill-palette-color="primary"></path></g><g id="text-1"><path d="M26.333 185.181l14.773 3.124 1.489 4.039-18.514-4.32-12.221 4.505-1.3-3.524 12.221-4.505 11.285-15.293 1.485 4.029z" fill="#ffffff" data-fill-palette-color="secondary"></path><path d="M41.225 216.793l20.026 0.639-0.03 3.27-17.195-0.559-3.63 18.236-2.813-3.562 3.578-17.974-10.946 8.645-2.341-2.963 22.682-17.914 2.341 2.964z" fill="#ffffff" data-fill-palette-color="secondary"></path><path d="M92.244 243.863l1.09-2.898 20.268 7.621-1.089 2.898-8.315-3.126-9.082 24.155-3.544-1.333 9.082-24.155z" fill="#ffffff" data-fill-palette-color="secondary"></path><path d="M131.219 263.984l0.182 0.014c0.477-0.798 0.977-1.512 1.502-2.142 0.531-0.63 1.102-1.156 1.713-1.577v0c0.555-0.411 1.155-0.704 1.799-0.877 0.645-0.173 1.369-0.229 2.172-0.166v0c0.27 0.021 0.579 0.059 0.928 0.114 0.355 0.055 0.689 0.129 1.001 0.221v0c-0.106 0.664-0.22 1.286-0.34 1.867-0.12 0.581-0.262 1.171-0.424 1.769v0c-0.658-0.174-1.266-0.31-1.821-0.407-0.549-0.097-1.073-0.125-1.572-0.083v0c-0.595 0.062-1.12 0.218-1.574 0.467-0.461 0.256-0.893 0.605-1.294 1.05-0.408 0.443-0.81 0.982-1.206 1.616-0.403 0.634-0.843 1.363-1.323 2.187v0l-0.938 11.963-3.451-0.271 1.007-12.843c0.066-0.843 0.114-1.586 0.145-2.229 0.03-0.643 0.041-1.256 0.032-1.84-0.015-0.585-0.061-1.166-0.138-1.742-0.077-0.576-0.189-1.22-0.338-1.931v0c0.572-0.105 1.136-0.196 1.692-0.275 0.549-0.079 1.108-0.151 1.676-0.215v0c0.147 0.555 0.261 1.042 0.344 1.463 0.076 0.42 0.132 0.832 0.168 1.235 0.037 0.397 0.056 0.802 0.057 1.217 0.002 0.407 0.002 0.879 0.001 1.415z" fill="#ffffff" data-fill-palette-color="secondary"></path><path d="M159.219 261.685v0l-1.389-2.6c2.048-1.302 4.282-2.182 6.703-2.638v0c2.122-0.4 3.808-0.35 5.059 0.151v0c1.431 0.577 2.332 1.847 2.702 3.809v0l1.524 8.08c0.203 1.077 0.425 2.179 0.665 3.305v0c0.14 0.669 0.338 1.355 0.594 2.057v0c0.236 0.665 0.498 1.29 0.788 1.877v0l-3.107 1.329c-0.473-0.827-0.852-1.778-1.137-2.853v0l-0.397 0.033c-1.248 2.364-3.136 3.784-5.663 4.26v0c-1.842 0.347-3.419 0.114-4.729-0.699-1.309-0.807-2.139-2.141-2.491-4.003v0c-0.26-1.377-0.167-2.565 0.278-3.565 0.445-1 1.169-1.908 2.172-2.724v0c1.582-1.29 3.959-2.234 7.132-2.832v0c0.426-0.08 0.997-0.174 1.713-0.282v0l-0.566-3.003c-0.179-0.951-0.601-1.581-1.266-1.89-0.659-0.317-1.607-0.358-2.844-0.124v0c-1.802 0.34-3.716 1.111-5.741 2.312zM170.887 271.024v0l-0.782-4.15c-0.364 0.041-0.889 0.126-1.574 0.255v0c-1.157 0.218-2.206 0.519-3.146 0.903v0c-1.389 0.558-2.424 1.225-3.104 2.001-0.679 0.782-0.908 1.759-0.687 2.929v0c0.396 2.102 1.742 2.936 4.036 2.504v0c1.184-0.223 2.228-0.747 3.133-1.573v0c0.746-0.685 1.454-1.641 2.124-2.869z" fill="#ffffff" data-fill-palette-color="secondary"></path><path d="M188.779 249.555v0l2.629-2.192c0.596 0.599 1.111 1.21 1.544 1.833v0c0.212 0.295 0.599 0.902 1.163 1.823v0l0.379-0.195c0.039-1.541 0.357-2.917 0.953-4.127v0c0.656-1.332 1.574-2.301 2.754-2.906v0c1.777-0.911 3.353-1.175 4.728-0.792v0c1.169 0.321 2.294 1.152 3.375 2.491v0c0.724 0.922 1.605 2.398 2.646 4.427v0l5.024 9.802-3.072 1.575-5.463-10.661c-0.911-1.777-1.737-2.958-2.478-3.544v0c-1.092-0.87-2.412-0.908-3.961-0.115v0c-1.096 0.562-1.9 1.635-2.41 3.221v0c-0.344 1.066-0.567 2.485-0.671 4.256v0l5.895 11.501-3.072 1.574-5.866-11.446c-0.824-1.608-1.578-2.975-2.262-4.1v0c-0.422-0.704-1.034-1.512-1.835-2.425z" fill="#ffffff" data-fill-palette-color="secondary"></path><path d="M222.96 225.064v0c0.797-0.763 1.673-1.443 2.628-2.04 0.956-0.597 1.916-1.081 2.882-1.454v0c0.163 0.444 0.316 0.883 0.46 1.317 0.139 0.439 0.261 0.889 0.366 1.351v0c-0.333 0.132-0.696 0.291-1.087 0.479-0.387 0.183-0.774 0.395-1.163 0.635-0.388 0.25-0.775 0.517-1.159 0.801-0.384 0.284-0.743 0.585-1.074 0.903v0c-0.357 0.342-0.666 0.708-0.929 1.101-0.267 0.387-0.45 0.787-0.55 1.201-0.095 0.41-0.094 0.821 0.002 1.235 0.101 0.419 0.341 0.826 0.721 1.222v0c0.389 0.406 0.802 0.661 1.24 0.766 0.443 0.11 0.9 0.113 1.371 0.008 0.476-0.1 0.975-0.278 1.498-0.535 0.527-0.262 1.067-0.559 1.62-0.891v0c0.872-0.498 1.717-0.932 2.534-1.303 0.822-0.365 1.621-0.587 2.398-0.667 0.782-0.074 1.541 0.024 2.277 0.293 0.746 0.27 1.481 0.783 2.207 1.541v0c0.758 0.792 1.253 1.626 1.483 2.502 0.235 0.871 0.262 1.75 0.08 2.637-0.182 0.886-0.543 1.762-1.083 2.626-0.545 0.869-1.223 1.692-2.035 2.469v0c-0.425 0.407-0.888 0.799-1.389 1.177-0.501 0.377-1.021 0.725-1.559 1.043-0.538 0.319-1.093 0.611-1.663 0.877-0.561 0.266-1.114 0.491-1.659 0.675v0c-0.158-0.439-0.304-0.88-0.439-1.324-0.134-0.434-0.256-0.874-0.366-1.321v0c0.444-0.172 0.903-0.368 1.377-0.588 0.479-0.224 0.948-0.473 1.409-0.746 0.456-0.277 0.893-0.565 1.311-0.862 0.423-0.302 0.803-0.615 1.14-0.937v0c0.425-0.407 0.791-0.852 1.098-1.334 0.312-0.477 0.526-0.972 0.643-1.487 0.116-0.505 0.11-1.015-0.018-1.529-0.128-0.505-0.414-0.99-0.859-1.455v0c-0.417-0.435-0.849-0.71-1.296-0.825-0.448-0.105-0.912-0.111-1.393-0.015-0.481 0.105-0.98 0.288-1.498 0.549-0.518 0.262-1.051 0.552-1.598 0.871v0c-0.834 0.489-1.654 0.915-2.462 1.275-0.807 0.37-1.602 0.597-2.384 0.681-0.777 0.089-1.544 0.008-2.299-0.243-0.751-0.255-1.487-0.76-2.208-1.512v0c-0.679-0.709-1.12-1.458-1.323-2.247-0.198-0.794-0.21-1.589-0.035-2.385 0.175-0.796 0.505-1.581 0.991-2.355 0.491-0.779 1.088-1.506 1.792-2.18z" fill="#ffffff" data-fill-palette-color="secondary"></path><path d="M234.088 199.215v0c0.337-0.515 0.808-0.846 1.413-0.992v0c0.637-0.109 1.219 0.009 1.746 0.353v0c0.538 0.352 0.871 0.832 0.999 1.441v0c0.131 0.628 0.029 1.199-0.309 1.715v0c-0.352 0.538-0.843 0.876-1.474 1.013v0c-0.605 0.146-1.182 0.04-1.732-0.32v0c-0.538-0.352-0.876-0.843-1.013-1.475v0c-0.105-0.619 0.018-1.197 0.37-1.735zM257.393 216.573l-17.496-11.438 1.894-2.897 17.496 11.437z" fill="#ffffff" data-fill-palette-color="secondary"></path><path d="M251.02 182.335l-4.509-1.592 1.149-3.254 4.509 1.591 2.341-6.634 2.747 0.969-2.341 6.635 11.315 3.993c0.759 0.268 1.345 0.45 1.757 0.545 0.418 0.097 0.77 0.096 1.056-0.004v0c0.568-0.166 1.029-0.749 1.383-1.752v0c0.196-0.555 0.331-1.11 0.405-1.665v0c0.072-0.57 0.116-1.1 0.13-1.591v0c0.898-0.085 1.858-0.109 2.878-0.071v0c-0.014 1.667-0.289 3.26-0.825 4.779v0c-0.387 1.098-0.823 1.935-1.306 2.511-0.483 0.576-1.069 0.954-1.757 1.134v0c-0.72 0.191-1.507 0.204-2.361 0.039-0.849-0.156-1.989-0.487-3.418-0.991v0l-10.406-3.673-1.003 2.844-2.748-0.97z" fill="#ffffff" data-fill-palette-color="secondary"></path></g></svg></g></svg></g></svg></g></svg></g><defs></defs></svg><rect width="280" height="280" fill="none" stroke="none" visibility="hidden"></rect></g></svg></g></svg>